<?xml version="1.0" encoding="UTF-8" standalone="no"?>
<!-- Created with Inkscape (http://www.inkscape.org/) -->

<svg
   xmlns:dc="http://purl.org/dc/elements/1.1/"
   xmlns:cc="http://creativecommons.org/ns#"
   xmlns:rdf="http://www.w3.org/1999/02/22-rdf-syntax-ns#"
   xmlns:svg="http://www.w3.org/2000/svg"
   xmlns="http://www.w3.org/2000/svg"
   xmlns:sodipodi="http://sodipodi.sourceforge.net/DTD/sodipodi-0.dtd"
   xmlns:inkscape="http://www.inkscape.org/namespaces/inkscape"
   version="1.1"
   id="svg2"
   xml:space="preserve"
   width="386.36194"
   height="200"
   viewBox="0 0 386.36194 200"
   sodipodi:docname="centrale-supelec-logo.svg"
   inkscape:version="0.92.2 (5c3e80d, 2017-08-06)"><metadata
     id="metadata8"><rdf:RDF><cc:Work
         rdf:about=""><dc:format>image/svg+xml</dc:format><dc:type
           rdf:resource="http://purl.org/dc/dcmitype/StillImage" /><dc:title></dc:title></cc:Work></rdf:RDF></metadata><defs
     id="defs6"><clipPath
       clipPathUnits="userSpaceOnUse"
       id="clipPath18"><path
         d="M 0,244.11 H 471.574 V 0 H 0 Z"
         id="path16"
         inkscape:connector-curvature="0" /></clipPath></defs><sodipodi:namedview
     pagecolor="#ffffff"
     bordercolor="#666666"
     borderopacity="1"
     objecttolerance="10"
     gridtolerance="10"
     guidetolerance="10"
     inkscape:pageopacity="0"
     inkscape:pageshadow="2"
     inkscape:window-width="1477"
     inkscape:window-height="1367"
     id="namedview4"
     showgrid="false"
     fit-margin-top="0"
     fit-margin-left="0"
     fit-margin-right="0"
     fit-margin-bottom="0"
     inkscape:zoom="0.72508293"
     inkscape:cx="314.38226"
     inkscape:cy="162.73919"
     inkscape:window-x="0"
     inkscape:window-y="104"
     inkscape:window-maximized="0"
     inkscape:current-layer="g10" /><g
     id="g10"
     inkscape:groupmode="layer"
     inkscape:label="Objet dynamique vectoriel4"
     transform="matrix(1.3333333,0,0,-1.3333333,-3.9999999e-4,200.0008)"><g
       id="g12"
       transform="matrix(0.61447861,0,0,0.61447861,1.1565642e-4,2.3131284e-4)"><g
         id="g14"
         clip-path="url(#clipPath18)"><g
           id="g20"
           transform="translate(274.4507,140.3323)"><path
             d="m 0,0 c -3.612,7.659 -13.105,10.699 -21.215,6.778 -8.103,-3.909 -13.976,-14.362 -10.357,-22.022 3.605,-7.659 15.328,-9.623 23.425,-5.708 C -0.044,-17.038 3.6,-7.666 0,0"
             style="fill:#b00739;fill-opacity:1;fill-rule:nonzero;stroke:none"
             id="path22"
             inkscape:connector-curvature="0" /></g><g
           id="g24"
           transform="translate(309.7417,157.2937)"><path
             d="m 0,0 c -9.518,20.14 -29.387,31.947 -50.084,31.928 -8.01,0.006 -16.182,-1.769 -23.843,-5.463 -7.661,-3.694 -14.151,-8.969 -19.184,-15.25 L -73.84,-4.569 c 2.772,3.448 6.304,6.338 10.595,8.408 4.292,2.064 8.745,3.02 13.155,3.02 11.467,-0.012 22.454,-6.494 27.698,-17.647 2.043,-4.336 2.99,-8.83 2.996,-13.305 -0.012,-11.58 -6.427,-22.676 -17.464,-27.982 -4.211,-2.02 -8.565,-2.983 -12.894,-3.027 V -80.17 c 7.917,0.044 15.989,1.819 23.569,5.469 C -6.254,-65.083 5.425,-45 5.406,-24.086 5.413,-15.999 3.662,-7.748 0,0"
             style="fill:#b00739;fill-opacity:1;fill-rule:nonzero;stroke:none"
             id="path26"
             inkscape:connector-curvature="0" /></g><g
           id="g28"
           transform="translate(209.5732,196.3968)"><path
             d="m 0,0 c -3.613,7.659 -15.335,9.623 -23.438,5.708 -8.097,-3.908 -11.747,-13.292 -8.135,-20.952 3.613,-7.659 13.105,-10.693 21.209,-6.784 C -2.255,-18.114 3.606,-7.666 0,0"
             style="fill:#8c7a99;fill-opacity:1;fill-rule:nonzero;stroke:none"
             id="path30"
             inkscape:connector-curvature="0" /></g><g
           id="g32"
           transform="translate(216.6538,168.5223)"><path
             d="m 0,0 c -2.771,-3.456 -6.316,-6.344 -10.595,-8.415 -4.291,-2.071 -8.745,-3.027 -13.173,-3.027 -11.455,0.018 -22.436,6.501 -27.686,17.647 -2.043,4.337 -2.99,8.837 -2.996,13.306 0.019,11.586 6.434,22.682 17.465,27.982 4.216,2.032 8.583,2.989 12.93,3.027 l -0.006,25.068 c -7.935,-0.032 -16.014,-1.806 -23.594,-5.463 -19.937,-9.617 -31.622,-29.707 -31.61,-50.614 0,-8.094 1.763,-16.345 5.413,-24.093 9.517,-20.122 29.368,-31.922 50.053,-31.922 h 0.031 c 8.016,-0.007 16.175,1.762 23.855,5.469 7.649,3.688 14.145,8.969 19.184,15.243 z"
             style="fill:#8c7a99;fill-opacity:1;fill-rule:nonzero;stroke:none"
             id="path34"
             inkscape:connector-curvature="0" /></g><g
           id="g36"
           transform="translate(48.6894,27.8245)"><path
             d="m 0,0 c 0,4.186 0.81,10.233 6.334,10.233 5.644,0 6.447,-6.047 6.447,-10.233 z m 6.446,12.217 c -7.131,0 -12.662,-6.635 -12.662,-14.369 0,-7.736 5.531,-14.369 12.662,-14.369 6.16,0 9.331,2.555 11.916,6.401 l -1.377,0.932 C 14.799,-12.16 12.202,-14.545 8.353,-14.545 3.401,-14.545 0,-10.007 0,-1.977 h 18.648 c 0,9.422 -5.468,14.194 -12.202,14.194"
             style="fill:#ffffff;fill-opacity:1;fill-rule:nonzero;stroke:none"
             id="path38"
             inkscape:connector-curvature="0" /></g><g
           id="g40"
           transform="translate(92.5508,40.0413)"><path
             d="m 0,0 c -3.974,0 -6.733,-2.209 -8.807,-5.815 h -0.118 v 5.462 l -9.038,-0.346 v -1.976 c 3.052,0 4.086,-0.579 4.086,-2.442 l -0.031,-22.922 h 5.444 l 0.006,15.879 c 0,4.426 2.765,9.825 7.013,9.825 2.13,0 4.615,-1.215 4.615,-6.274 v -19.43 h 5.413 l -0.006,17.39 C 8.577,-2.152 4.086,0 0,0"
             style="fill:#ffffff;fill-opacity:1;fill-rule:nonzero;stroke:none"
             id="path42"
             inkscape:connector-curvature="0" /></g><g
           id="g44"
           transform="translate(127.5986,19.5618)"><path
             d="m 0,0 c 0,-4.658 -1.956,-6.282 -4.205,-6.282 -1.663,0 -3.164,0.579 -3.164,3.034 v 21.053 h 8.004 v 1.975 h -8.004 v 9.07 h -2.068 c -1.501,-7.093 -2.186,-8.61 -7.548,-9.07 v -1.975 h 4.21 V -1.158 c 0,-5.759 3.108,-7.1 7.144,-7.1 5.693,0 7.25,3.26 7.25,8.496 V 1.221 H 0 Z"
             style="fill:#ffffff;fill-opacity:1;fill-rule:nonzero;stroke:none"
             id="path46"
             inkscape:connector-curvature="0" /></g><g
           id="g48"
           transform="translate(152.4643,40.0413)"><path
             d="m 0,0 c -4.777,0 -6.677,-3.612 -7.886,-8.264 h -0.112 v 7.911 l -9.156,-0.346 v -1.976 c 3.109,0 4.142,-0.579 4.142,-2.442 v -22.922 h 5.401 c 0,0 0.012,3.027 0.012,7.854 0,11.053 2.877,18.203 6.733,18.203 0.349,0 0.517,-0.057 0.747,-0.114 -0.803,-0.522 -1.202,-1.341 -1.202,-2.272 0,-1.623 0.972,-2.732 2.816,-2.732 1.781,0 3.058,1.511 3.058,3.084 C 4.553,-2.271 3.17,0 0,0"
             style="fill:#ffffff;fill-opacity:1;fill-rule:nonzero;stroke:none"
             id="path50"
             inkscape:connector-curvature="0" /></g><g
           id="g52"
           transform="translate(179.8052,22.1292)"><path
             d="m 0,0 c 0,-4.947 -3.17,-8.384 -6.795,-8.384 -2.704,0 -4.024,1.863 -4.024,4.482 0,5.06 6.789,7.967 10.819,8.956 z m 7.194,-7.452 c -1.096,0 -1.788,0.352 -1.788,3.261 V 9.881 c 0,6.168 -3.681,8.031 -11.168,8.031 -5.238,0 -9.779,-2.971 -9.779,-6.515 0,-1.75 1.377,-3.379 3.333,-3.379 1.956,0 3.338,1.629 3.338,3.379 0,1.624 -0.915,2.789 -2.472,3.079 1.731,1.101 3.401,1.454 5.412,1.454 2.193,0 5.93,-0.693 5.93,-3.607 L 0,6.916 C -4.896,5.229 -17.042,2.549 -17.042,-4.135 c 0,-4.532 4.03,-6.69 8.116,-6.69 4.26,0 7.655,1.277 9.268,5.582 h 0.119 c 0.461,-3.028 1.264,-5.224 4.659,-5.224 4.092,0 5.923,3.305 5.923,7.093 H 9.442 c 0,-1.397 -0.404,-4.078 -2.248,-4.078"
             style="fill:#ffffff;fill-opacity:1;fill-rule:nonzero;stroke:none"
             id="path54"
             inkscape:connector-curvature="0" /></g><g
           id="g56"
           transform="translate(221.8423,27.8245)"><path
             d="m 0,0 c 0,4.186 0.81,10.233 6.334,10.233 5.644,0 6.453,-6.047 6.453,-10.233 z m 6.447,12.217 c -7.132,0 -12.657,-6.635 -12.657,-14.369 0,-7.736 5.525,-14.369 12.657,-14.369 6.159,0 9.324,2.555 11.915,6.401 l -1.377,0.932 C 14.799,-12.16 12.208,-14.545 8.353,-14.545 3.401,-14.545 0,-10.007 0,-1.977 h 18.654 c 0,9.422 -5.468,14.194 -12.207,14.194"
             style="fill:#ffffff;fill-opacity:1;fill-rule:nonzero;stroke:none"
             id="path58"
             inkscape:connector-curvature="0" /></g><g
           id="g60"
           transform="translate(303.0141,39.3421)"><path
             d="m 0,0 v -1.976 c 3.457,0 4.491,-0.579 4.491,-2.442 v -13.028 c -0.517,-3.845 -2.592,-8.271 -7.312,-8.271 -3.046,0 -4.317,2.329 -4.317,5.59 V 0 h -9.499 v -1.976 c 3.053,0 4.086,-0.579 4.086,-2.442 v -13.147 c 0,-6.873 3.395,-10.474 8.577,-10.474 3.974,0 6.734,2.216 8.807,5.816 h 0.119 v -5.091 H 9.903 L 9.897,0 Z"
             style="fill:#ffffff;fill-opacity:1;fill-rule:nonzero;stroke:none"
             id="path62"
             inkscape:connector-curvature="0" /></g><g
           id="g64"
           transform="translate(255.1743,43.6731)"><path
             d="m 0,0 c 0,4.657 3.282,7.042 7.661,7.042 6.677,0 9.953,-6.457 11.454,-12.216 h 1.608 V 8.319 H 18.767 C 18.593,7.74 17.845,5.646 16.991,5.646 c -1.388,0 -4.147,3.373 -9.386,3.373 -6.167,0 -12.326,-4.073 -12.326,-11.052 0,-15.47 23.027,-7.736 23.027,-20.82 0,-4.714 -4.21,-7.609 -9.275,-7.609 -7.873,0 -11.441,4.519 -12.724,10.712 h -1.726 c 1.252,-7.521 5.806,-12.645 14.706,-12.645 7.624,0.033 13.74,4.916 13.74,12.972 C 23.027,-5.117 0,-11.109 0,0"
             style="fill:#ffffff;fill-opacity:1;fill-rule:nonzero;stroke:none"
             id="path66"
             inkscape:connector-curvature="0" /></g><g
           id="g68"
           transform="translate(338.5249,13.2806)"><path
             d="m 0,0 c -1.9,0 -6.565,1.806 -6.565,10.648 v 1.568 c 0,7.332 2.653,12.562 7.026,12.562 4.951,0 7.025,-5.23 7.025,-12.562 C 7.486,3.606 5.412,0 0,0 m 1.208,26.761 c -4.603,0 -6.677,-2.794 -8.109,-6.055 H -7.02 v 5.356 l -9.331,-0.352 v -1.977 c 3.339,0 4.379,-0.586 4.379,-2.442 V -13.28 h 5.419 L -6.565,2.737 h 0.118 c 1.725,-3.316 3.625,-4.714 7.711,-4.714 6.908,0 12.09,6.98 12.09,14.665 0,7.262 -5.413,14.073 -12.146,14.073"
             style="fill:#ffffff;fill-opacity:1;fill-rule:nonzero;stroke:none"
             id="path70"
             inkscape:connector-curvature="0" /></g><g
           id="g72"
           transform="translate(380.8286,48.9974)"><path
             d="m 0,0 c 1.034,0.642 1.72,1.566 1.72,2.379 0,1.114 -0.574,1.926 -1.95,1.926 -1.096,0 -1.788,-0.586 -2.479,-1.341 l -8.459,-8.66 h 2.305 z"
             style="fill:#ffffff;fill-opacity:1;fill-rule:nonzero;stroke:none"
             id="path74"
             inkscape:connector-curvature="0" /></g><g
           id="g76"
           transform="translate(367.0698,27.8245)"><path
             d="m 0,0 c 0,4.186 0.81,10.233 6.335,10.233 5.643,0 6.446,-6.047 6.446,-10.233 z m 6.447,12.217 c -7.138,0 -12.663,-6.635 -12.663,-14.369 0,-7.736 5.525,-14.369 12.663,-14.369 6.154,0 9.324,2.555 11.915,6.401 l -1.377,0.932 C 14.793,-12.16 12.208,-14.545 8.347,-14.545 3.401,-14.545 0,-10.007 0,-1.977 h 18.648 c 0,9.422 -5.461,14.194 -12.201,14.194"
             style="fill:#ffffff;fill-opacity:1;fill-rule:nonzero;stroke:none"
             id="path78"
             inkscape:connector-curvature="0" /></g><g
           id="g80"
           transform="translate(393.2007,47.6067)"><path
             d="M 0,0 C 3.339,0 4.372,-0.579 4.372,-2.449 L 4.354,-35.604 H 9.779 L 9.785,2.328 0,1.976 Z"
             style="fill:#ffffff;fill-opacity:1;fill-rule:nonzero;stroke:none"
             id="path82"
             inkscape:connector-curvature="0" /></g><g
           id="g84"
           transform="translate(470.1352,18.6614)"><path
             d="m 0,0 c -2.018,-3.034 -4.609,-5.356 -8.751,-5.356 -6.16,0 -8.808,5.758 -8.808,13.035 0,7.369 3.533,11.724 8.279,11.724 6.39,0 3.214,-7.036 7.256,-7.036 1.67,0 3.102,1.215 3.102,2.902 0,3.888 -5.4,6.135 -9.829,6.135 -7.711,0 -15.023,-6.053 -15.023,-14.368 0,-8.314 6.047,-14.368 13.933,-14.368 5.351,0 8.919,2.561 11.279,6.64 z"
             style="fill:#ffffff;fill-opacity:1;fill-rule:nonzero;stroke:none"
             id="path86"
             inkscape:connector-curvature="0" /></g><g
           id="g88"
           transform="translate(195.6084,47.6067)"><path
             d="M 0,0 C 3.338,0 4.372,-0.579 4.372,-2.449 L 4.391,-35.604 H 9.772 L 9.785,2.328 0,1.976 Z"
             style="fill:#ffffff;fill-opacity:1;fill-rule:nonzero;stroke:none"
             id="path90"
             inkscape:connector-curvature="0" /></g><g
           id="g92"
           transform="translate(419.1548,27.8245)"><path
             d="m 0,0 c 0,4.186 0.81,10.233 6.334,10.233 5.637,0 6.447,-6.047 6.447,-10.233 z m 6.446,12.217 c -7.137,0 -12.663,-6.635 -12.663,-14.369 0,-7.736 5.526,-14.369 12.663,-14.369 6.16,0 9.325,2.555 11.915,6.401 l -1.376,0.932 C 14.793,-12.16 12.201,-14.545 8.346,-14.545 3.395,-14.545 0,-10.007 0,-1.977 h 18.648 c 0,9.422 -5.468,14.194 -12.202,14.194"
             style="fill:#ffffff;fill-opacity:1;fill-rule:nonzero;stroke:none"
             id="path94"
             inkscape:connector-curvature="0" /></g><g
           id="g96"
           transform="translate(18.5923,13.2806)"><path
             d="m 0,0 c -5.008,0 -11.915,4.771 -11.915,18.729 0,12.62 3.799,18.731 12.083,18.731 7.375,0 10.078,-6.338 11.866,-12.795 h 1.557 v 13.727 h -1.389 c -0.343,-1.052 -1.321,-2.216 -2.361,-2.216 -0.978,0 -5.12,3.261 -10.239,3.261 -10.477,0 -18.194,-9.939 -18.194,-20.708 0,-10.755 7.717,-20.706 17.558,-20.706 9.561,0 14.176,4.915 15.478,12.644 H 12.712 C 11.423,4.506 7.854,0 0,0"
             style="fill:#ffffff;fill-opacity:1;fill-rule:nonzero;stroke:none"
             id="path98"
             inkscape:connector-curvature="0" /></g></g></g></g></svg>